<svg width="1584" height="396" viewBox="0 0 1584 396" fill="none" xmlns="http://www.w3.org/2000/svg">
<rect width="1584" height="396" fill="#F5F5F5"/>
<g id="Awesome banner" clip-path="url(#clip0_0_1)">
<rect width="1584" height="396" fill="url(#paint0_linear_0_1)"/>
<ellipse id="Ellipse 2" cx="323" cy="64" rx="285" ry="288" fill="url(#paint1_linear_0_1)" fill-opacity="0.1"/>
<g id="copyright">
<path d="M75.95 334.52L72.30 334.52L72.30 311.16L77.20 311.16L83.70 330.04Q83.60 329.02 83.50 327.62Q83.41 326.23 83.33 324.79Q83.25 323.35 83.25 322.23L83.25 311.16L86.90 311.16L86.90 334.52L82 334.52L75.57 315.64Q75.63 316.57 75.73 317.88Q75.82 319.19 75.89 320.57Q75.95 321.94 75.95 323.10L75.95 334.52M98.80 334.84Q96.46 334.84 94.67 333.96Q92.88 333.08 91.89 331.53Q90.90 329.98 90.90 327.93Q90.90 325.78 92.13 324.18Q93.36 322.58 95.34 322.17L95.34 322.10Q93.65 321.75 92.61 320.38Q91.57 319 91.57 317.11Q91.57 315.26 92.48 313.85Q93.39 312.44 95.02 311.64Q96.66 310.84 98.80 310.84Q100.94 310.84 102.59 311.64Q104.24 312.44 105.15 313.85Q106.06 315.26 106.06 317.11Q106.06 319 105.01 320.38Q103.95 321.75 102.26 322.10L102.26 322.17Q104.24 322.58 105.47 324.18Q106.70 325.78 106.70 327.93Q106.70 329.98 105.71 331.53Q104.72 333.08 102.93 333.96Q101.14 334.84 98.80 334.84M98.80 320.73Q100.30 320.73 101.23 319.82Q102.16 318.90 102.16 317.46Q102.16 315.99 101.23 315.08Q100.30 314.17 98.80 314.17Q97.30 314.17 96.37 315.08Q95.44 315.99 95.44 317.46Q95.44 318.90 96.37 319.82Q97.30 320.73 98.80 320.73M98.80 331.45Q100.56 331.45 101.68 330.42Q102.80 329.40 102.80 327.74Q102.80 326.04 101.68 325Q100.56 323.96 98.80 323.96Q97.04 323.96 95.92 325Q94.80 326.04 94.80 327.74Q94.80 329.40 95.92 330.42Q97.04 331.45 98.80 331.45M114.35 334.52L110.70 334.52L110.70 311.16L115.60 311.16L122.10 330.04Q122 329.02 121.90 327.62Q121.81 326.23 121.73 324.79Q121.65 323.35 121.65 322.23L121.65 311.16L125.30 311.16L125.30 334.52L120.40 334.52L113.97 315.64Q114.03 316.57 114.13 317.88Q114.22 319.19 114.29 320.57Q114.35 321.94 114.35 323.10" fill="white" fill-opacity="0.9"/>
<path d="M161.48 325.24L151.24 325.24L151.24 322.68L161.48 322.68" fill="white" fill-opacity="0.9"/>
<path d="M195.02 334.84Q191.82 334.84 189.96 333.05Q188.11 331.26 188.11 328.12L188.11 317.56Q188.11 314.42 189.96 312.63Q191.82 310.84 195.02 310.84Q198.15 310.84 200.01 312.65Q201.87 314.46 201.87 317.56L198.99 317.56Q198.99 315.58 197.95 314.50Q196.91 313.43 195.02 313.43Q193.13 313.43 192.06 314.50Q190.99 315.58 190.99 317.56L190.99 328.12Q190.99 330.10 192.06 331.18Q193.13 332.25 195.02 332.25Q196.91 332.25 197.95 331.18Q198.99 330.10 198.99 328.12L201.87 328.12Q201.87 331.22 200.01 333.03Q198.15 334.84 195.02 334.84" fill="white" fill-opacity="0.9"/>
<path d="M213.96 334.84Q210.83 334.84 209 333.02Q207.18 331.19 207.18 327.80L207.18 317.88Q207.18 314.49 209 312.66Q210.83 310.84 213.96 310.84Q217.10 310.84 218.92 312.66Q220.75 314.49 220.75 317.85L220.75 327.80Q220.75 331.19 218.92 333.02Q217.10 334.84 213.96 334.84M213.96 332.25Q215.85 332.25 216.86 331.18Q217.87 330.10 217.87 328.12L217.87 317.56Q217.87 315.58 216.86 314.50Q215.85 313.43 213.96 313.43Q212.11 313.43 211.08 314.50Q210.06 315.58 210.06 317.56L210.06 328.12Q210.06 330.10 211.08 331.18Q212.11 332.25 213.96 332.25" fill="white" fill-opacity="0.9"/>
<path d="M228.65 334.52L225.87 334.52L225.87 311.16L230.12 311.16L233.10 321.27L236.20 311.16L240.46 311.16L240.46 334.52L237.67 334.52L237.67 323.48Q237.67 321.91 237.72 319.88Q237.77 317.85 237.87 315.77Q237.96 313.69 238.09 312.02L234.31 324.09L231.82 324.09L228.20 312.31Q228.46 314.68 228.55 317.50Q228.65 320.31 228.65 323.48" fill="white" fill-opacity="0.9"/>
<path d="M247.85 334.52L245.07 334.52L245.07 311.16L249.32 311.16L252.30 321.27L255.40 311.16L259.66 311.16L259.66 334.52L256.87 334.52L256.87 323.48Q256.87 321.91 256.92 319.88Q256.97 317.85 257.07 315.77Q257.16 313.69 257.29 312.02L253.51 324.09L251.02 324.09L247.40 312.31Q247.66 314.68 247.75 317.50Q247.85 320.31 247.85 323.48" fill="white" fill-opacity="0.9"/>
<path d="M271.56 334.84Q268.30 334.84 266.57 333.03Q264.84 331.22 264.84 328.12L264.84 311.16L267.72 311.16L267.72 328.12Q267.72 330.04 268.67 331.16Q269.61 332.28 271.56 332.28Q273.48 332.28 274.44 331.16Q275.40 330.04 275.40 328.12L275.40 311.16L278.28 311.16L278.28 328.12Q278.28 331.26 276.57 333.05Q274.86 334.84 271.56 334.84" fill="white" fill-opacity="0.9"/>
<path d="M286.83 334.52L284.04 334.52L284.04 311.16L287.88 311.16L295.02 331.16Q294.95 330.36 294.87 329.19Q294.79 328.02 294.75 326.73Q294.70 325.43 294.70 324.28L294.70 311.16L297.48 311.16L297.48 334.52L293.64 334.52L286.54 314.52Q286.60 315.29 286.67 316.46Q286.73 317.62 286.78 318.92Q286.83 320.22 286.83 321.40" fill="white" fill-opacity="0.9"/>
<path d="M316.20 334.52L303.72 334.52L303.72 331.90L308.49 331.90L308.49 313.78L303.72 313.78L303.72 311.16L316.20 311.16L316.20 313.78L311.43 313.78L311.43 331.90L316.20 331.90" fill="white" fill-opacity="0.9"/>
<path d="M330.60 334.52L327.72 334.52L327.72 313.78L321.32 313.78L321.32 311.16L337 311.16L337 313.78L330.60 313.78" fill="white" fill-opacity="0.9"/>
<path d="M349.80 334.52L346.92 334.52L346.92 325.78L339.88 311.16L342.95 311.16L347.50 320.76Q347.88 321.56 348.11 322.12Q348.33 322.68 348.39 322.94Q348.46 322.68 348.70 322.12Q348.94 321.56 349.32 320.76L353.87 311.16L356.84 311.16L349.80 325.78" fill="white" fill-opacity="0.9"/>
<path d="M382.83 334.52L380.04 334.52L380.04 311.16L383.88 311.16L391.02 331.16Q390.95 330.36 390.87 329.19Q390.79 328.02 390.75 326.73Q390.70 325.43 390.70 324.28L390.70 311.16L393.48 311.16L393.48 334.52L389.64 334.52L382.54 314.52Q382.60 315.29 382.67 316.46Q382.73 317.62 382.78 318.92Q382.83 320.22 382.83 321.40" fill="white" fill-opacity="0.9"/>
<path d="M405.96 334.84Q402.83 334.84 401 333.02Q399.18 331.19 399.18 327.80L399.18 317.88Q399.18 314.49 401 312.66Q402.83 310.84 405.96 310.84Q409.10 310.84 410.92 312.66Q412.75 314.49 412.75 317.85L412.75 327.80Q412.75 331.19 410.92 333.02Q409.10 334.84 405.96 334.84M405.96 332.25Q407.85 332.25 408.86 331.18Q409.87 330.10 409.87 328.12L409.87 317.56Q409.87 315.58 408.86 314.50Q407.85 313.43 405.96 313.43Q404.11 313.43 403.08 314.50Q402.06 315.58 402.06 317.56L402.06 328.12Q402.06 330.10 403.08 331.18Q404.11 332.25 405.96 332.25" fill="white" fill-opacity="0.9"/>
<path d="M424.55 334.52L418.51 334.52L418.51 311.16L424.55 311.16Q426.83 311.16 428.47 312.02Q430.12 312.89 431.03 314.46Q431.95 316.02 431.95 318.17L431.95 327.48Q431.95 329.62 431.03 331.21Q430.12 332.79 428.47 333.66Q426.83 334.52 424.55 334.52M421.39 313.72L421.39 331.96L424.55 331.96Q426.67 331.96 427.87 330.78Q429.07 329.59 429.07 327.48L429.07 318.17Q429.07 316.09 427.87 314.90Q426.67 313.72 424.55 313.72" fill="white" fill-opacity="0.9"/>
<path d="M451.40 334.52L437.96 334.52L437.96 311.16L451.40 311.16L451.40 313.78L440.81 313.78L440.81 321.02L450.28 321.02L450.28 323.58L440.81 323.58L440.81 331.90L451.40 331.90" fill="white" fill-opacity="0.9"/>
<path d="M463.69 334.84Q460.30 334.84 458.28 333.05Q456.27 331.26 456.27 328.12L459.15 328.12Q459.15 330.07 460.39 331.18Q461.64 332.28 463.69 332.28Q465.67 332.28 466.86 331.13Q468.04 329.98 468.04 328.12Q468.04 326.71 467.29 325.67Q466.54 324.63 465.13 324.25L461.58 323.26Q459.37 322.62 458.11 320.97Q456.84 319.32 456.84 317.08Q456.84 315.22 457.67 313.82Q458.51 312.41 460.01 311.62Q461.51 310.84 463.47 310.84Q465.45 310.84 466.97 311.62Q468.49 312.41 469.35 313.80Q470.22 315.19 470.22 317.02L467.34 317.02Q467.34 315.42 466.25 314.41Q465.16 313.40 463.47 313.40Q461.77 313.40 460.71 314.41Q459.66 315.42 459.66 317.02Q459.66 318.30 460.35 319.21Q461.03 320.12 462.28 320.47L465.93 321.50Q468.27 322.14 469.56 323.91Q470.86 325.69 470.86 328.12Q470.86 331.19 468.91 333.02Q466.95 334.84 463.69 334.84" fill="white" fill-opacity="0.9"/>
</g>
<path d="M74.37 197.64L72.23 197.64L72.23 180.12L77.63 180.12Q79.19 180.12 80.37 180.76Q81.54 181.39 82.19 182.52Q82.84 183.65 82.84 185.16Q82.84 186.94 81.93 188.21Q81.02 189.48 79.50 189.98L83.08 197.64L80.70 197.64L77.27 190.20L74.37 190.20L74.37 197.64M74.37 182.06L74.37 188.26L77.63 188.26Q78.98 188.26 79.79 187.40Q80.61 186.55 80.61 185.16Q80.61 183.74 79.79 182.90Q78.98 182.06 77.63 182.06" fill="white" fill-opacity="0.7"/>
<path d="M90.45 197.88Q88.41 197.88 87.21 196.74Q86.01 195.60 86.01 193.75Q86.01 192.53 86.56 191.62Q87.11 190.70 88.10 190.19Q89.08 189.67 90.35 189.67L94.43 189.67L94.43 188.64Q94.43 186.07 91.62 186.07Q90.38 186.07 89.61 186.53Q88.84 186.98 88.79 187.80L86.63 187.80Q86.75 186.24 88.08 185.22Q89.42 184.20 91.62 184.20Q94.02 184.20 95.31 185.35Q96.59 186.50 96.59 188.57L96.59 197.64L94.46 197.64L94.46 195.24L94.41 195.24Q94.22 196.46 93.18 197.17Q92.15 197.88 90.45 197.88M90.98 196.06Q92.56 196.06 93.50 195.29Q94.43 194.52 94.43 193.20L94.43 191.35L90.59 191.35Q89.54 191.35 88.88 191.99Q88.22 192.62 88.22 193.68Q88.22 194.78 88.95 195.42Q89.68 196.06 90.98 196.06" fill="white" fill-opacity="0.7"/>
<path d="M105.33 201.96L103.07 201.96L105.02 196.82L100.10 184.44L102.42 184.44L105.54 192.60Q105.74 193.08 105.90 193.61Q106.07 194.14 106.14 194.52Q106.22 194.14 106.38 193.61Q106.55 193.08 106.72 192.60L109.62 184.44L111.90 184.44" fill="white" fill-opacity="0.7"/>
<path d="M119.63 197.88Q117.66 197.88 116.48 196.56Q115.29 195.24 115.29 192.98L115.29 189.12Q115.29 186.84 116.46 185.52Q117.64 184.20 119.63 184.20Q121.12 184.20 122.09 184.94Q123.06 185.69 123.26 186.96L123.28 186.96L123.23 183.96L123.23 180.12L125.39 180.12L125.39 197.64L123.23 197.64L123.23 195.12L123.21 195.12Q123.04 196.42 122.08 197.15Q121.12 197.88 119.63 197.88M120.35 196.01Q121.70 196.01 122.46 195.17Q123.23 194.33 123.23 192.84L123.23 189.24Q123.23 187.75 122.46 186.91Q121.70 186.07 120.35 186.07Q118.98 186.07 118.22 186.78Q117.45 187.49 117.45 189.12L117.45 192.96Q117.45 194.57 118.22 195.29Q118.98 196.01 120.35 196.01" fill="white" fill-opacity="0.7"/>
<path d="M140.92 197.64L129.64 197.64L129.64 195.67L134.32 195.67L134.32 186.41L130.12 186.41L130.12 184.44L136.48 184.44L136.48 195.67L140.92 195.67L140.92 197.64M135.16 182.06Q134.37 182.06 133.91 181.66Q133.46 181.25 133.46 180.55Q133.46 179.83 133.91 179.41Q134.37 178.99 135.16 178.99Q135.95 178.99 136.41 179.41Q136.86 179.83 136.86 180.55Q136.86 181.25 136.41 181.66Q135.95 182.06 135.16 182.06" fill="white" fill-opacity="0.7"/>
<path d="M149.18 197.88Q146.90 197.88 145.53 196.52Q144.16 195.17 144.16 192.84L144.16 184.44L146.32 184.44L146.32 192.84Q146.32 194.28 147.09 195.13Q147.86 195.98 149.18 195.98Q150.52 195.98 151.30 195.13Q152.08 194.28 152.08 192.84L152.08 184.44L154.24 184.44L154.24 192.84Q154.24 195.17 152.85 196.52Q151.46 197.88 149.18 197.88" fill="white" fill-opacity="0.7"/>
<path d="M159.86 197.64L157.84 197.64L157.84 184.44L159.71 184.44L159.71 186.19L159.76 186.19Q159.88 185.30 160.47 184.75Q161.06 184.20 161.97 184.20Q162.83 184.20 163.43 184.70Q164.03 185.21 164.30 186.07L164.32 186.07Q164.49 185.21 165.08 184.70Q165.66 184.20 166.58 184.20Q167.85 184.20 168.60 185.15Q169.36 186.10 169.36 187.61L169.36 197.64L167.34 197.64L167.34 187.58Q167.34 186.79 166.96 186.32Q166.58 185.86 165.90 185.86Q165.26 185.86 164.87 186.31Q164.49 186.77 164.49 187.56L164.49 197.64L162.71 197.64L162.71 187.58Q162.71 186.79 162.33 186.32Q161.94 185.86 161.30 185.86Q160.62 185.86 160.24 186.31Q159.86 186.77 159.86 187.56" fill="white" fill-opacity="0.7"/>
<path d="M188.61 197.64L186.40 197.64L190.96 180.12L193.86 180.12L198.40 197.64L196.22 197.64L195.06 192.98L189.76 192.98L188.61 197.64M191.54 185.74L190.19 191.16L194.61 191.16L193.26 185.76Q192.88 184.22 192.66 183.19Q192.45 182.16 192.40 181.85Q192.35 182.16 192.14 183.19Q191.92 184.22 191.54 185.74" fill="white" fill-opacity="0.7"/>
<path d="M203.42 197.64L201.33 197.64L201.33 180.12L204.52 180.12L206.75 187.70L209.08 180.12L212.27 180.12L212.27 197.64L210.18 197.64L210.18 189.36Q210.18 188.18 210.22 186.66Q210.26 185.14 210.33 183.58Q210.40 182.02 210.50 180.77L207.66 189.82L205.79 189.82L203.08 180.98Q203.27 182.76 203.34 184.87Q203.42 186.98 203.42 189.36" fill="white" fill-opacity="0.7"/>
<path d="M217.82 197.64L215.73 197.64L215.73 180.12L218.92 180.12L221.15 187.70L223.48 180.12L226.67 180.12L226.67 197.64L224.58 197.64L224.58 189.36Q224.58 188.18 224.62 186.66Q224.66 185.14 224.73 183.58Q224.80 182.02 224.90 180.77L222.06 189.82L220.19 189.82L217.48 180.98Q217.67 182.76 217.74 184.87Q217.82 186.98 217.82 189.36" fill="white" fill-opacity="0.7"/>
<path d="MNaN 197.64L251.92 197.64Q250.17 197.64 249.12 196.62Q248.08 195.60 248.08 193.92L248.08 182.09L243.52 182.09L243.52 180.12L250.24 180.12L250.24 193.92Q250.24 194.74 250.70 195.20Q251.15 195.67 251.92 195.67LNaN 195.67" fill="white" fill-opacity="0.7"/>
<path d="M270.52 197.64L259.24 197.64L259.24 195.67L263.92 195.67L263.92 186.41L259.72 186.41L259.72 184.44L266.08 184.44L266.08 195.67L270.52 195.67L270.52 197.64M264.76 182.06Q263.97 182.06 263.51 181.66Q263.06 181.25 263.06 180.55Q263.06 179.83 263.51 179.41Q263.97 178.99 264.76 178.99Q265.55 178.99 266.01 179.41Q266.46 179.83 266.46 180.55Q266.46 181.25 266.01 181.66Q265.55 182.06 264.76 182.06" fill="white" fill-opacity="0.7"/>
<path d="M283.79 201.96L281.63 201.96L281.63 198.12L281.68 195.12L281.61 195.12Q281.44 196.39 280.48 197.14Q279.52 197.88 278.03 197.88Q276.04 197.88 274.86 196.56Q273.69 195.24 273.69 192.96L273.69 189.10Q273.69 186.82 274.88 185.51Q276.06 184.20 278.03 184.20Q279.52 184.20 280.48 184.93Q281.44 185.66 281.61 186.96L281.63 186.96L281.63 184.44L283.79 184.44L283.79 201.96M278.75 196.01Q280.10 196.01 280.86 195.17Q281.63 194.33 281.63 192.84L281.63 189.24Q281.63 187.75 280.86 186.91Q280.10 186.07 278.75 186.07Q277.38 186.07 276.62 186.77Q275.85 187.46 275.85 189L275.85 193.08Q275.85 194.62 276.62 195.31Q277.38 196.01 278.75 196.01" fill="white" fill-opacity="0.7"/>
<path d="M293.18 197.88Q290.90 197.88 289.53 196.52Q288.16 195.17 288.16 192.84L288.16 184.44L290.32 184.44L290.32 192.84Q290.32 194.28 291.09 195.13Q291.86 195.98 293.18 195.98Q294.52 195.98 295.30 195.13Q296.08 194.28 296.08 192.84L296.08 184.44L298.24 184.44L298.24 192.84Q298.24 195.17 296.85 196.52Q295.46 197.88 293.18 197.88" fill="white" fill-opacity="0.7"/>
<path d="M313.72 197.64L302.44 197.64L302.44 195.67L307.12 195.67L307.12 186.41L302.92 186.41L302.92 184.44L309.28 184.44L309.28 195.67L313.72 195.67L313.72 197.64M307.96 182.06Q307.17 182.06 306.71 181.66Q306.26 181.25 306.26 180.55Q306.26 179.83 306.71 179.41Q307.17 178.99 307.96 178.99Q308.75 178.99 309.21 179.41Q309.66 179.83 309.66 180.55Q309.66 181.25 309.21 181.66Q308.75 182.06 307.96 182.06" fill="white" fill-opacity="0.7"/>
<path d="M321.23 197.88Q319.26 197.88 318.08 196.56Q316.89 195.24 316.89 192.98L316.89 189.12Q316.89 186.84 318.06 185.52Q319.24 184.20 321.23 184.20Q322.72 184.20 323.69 184.94Q324.66 185.69 324.86 186.96L324.88 186.96L324.83 183.96L324.83 180.12L326.99 180.12L326.99 197.64L324.83 197.64L324.83 195.12L324.81 195.12Q324.64 196.42 323.68 197.15Q322.72 197.88 321.23 197.88M321.95 196.01Q323.30 196.01 324.06 195.17Q324.83 194.33 324.83 192.84L324.83 189.24Q324.83 187.75 324.06 186.91Q323.30 186.07 321.95 186.07Q320.58 186.07 319.82 186.78Q319.05 187.49 319.05 189.12L319.05 192.96Q319.05 194.57 319.82 195.29Q320.58 196.01 321.95 196.01" fill="white" fill-opacity="0.7"/>
<path d="M342.52 197.64L331.24 197.64L331.24 195.67L335.92 195.67L335.92 186.41L331.72 186.41L331.72 184.44L338.08 184.44L338.08 195.67L342.52 195.67L342.52 197.64M336.76 182.06Q335.97 182.06 335.51 181.66Q335.06 181.25 335.06 180.55Q335.06 179.83 335.51 179.41Q335.97 178.99 336.76 178.99Q337.55 178.99 338.01 179.41Q338.46 179.83 338.46 180.55Q338.46 181.25 338.01 181.66Q337.55 182.06 336.76 182.06" fill="white" fill-opacity="0.7"/>
<path d="M355.96 197.64L352.12 197.64Q350.49 197.64 349.50 196.69Q348.52 195.74 348.52 194.16L348.52 186.41L344.73 186.41L344.73 184.44L348.52 184.44L348.52 180.72L350.68 180.72L350.68 184.44L356.08 184.44L356.08 186.41L350.68 186.41L350.68 194.16Q350.68 194.83 351.08 195.25Q351.47 195.67 352.12 195.67L355.96 195.67" fill="white" fill-opacity="0.7"/>
<path d="M364.53 201.96L362.27 201.96L364.22 196.82L359.30 184.44L361.62 184.44L364.74 192.60Q364.94 193.08 365.10 193.61Q365.27 194.14 365.34 194.52Q365.42 194.14 365.58 193.61Q365.75 193.08 365.92 192.60L368.82 184.44L371.10 184.44" fill="white" fill-opacity="0.7"/>
<path d="M391.17 201.96L389.01 201.96L389.01 184.44L391.17 184.44L391.17 186.96L391.19 186.96Q391.36 185.66 392.32 184.93Q393.28 184.20 394.77 184.20Q396.76 184.20 397.94 185.51Q399.11 186.82 399.11 189.10L399.11 192.96Q399.11 195.24 397.94 196.56Q396.76 197.88 394.77 197.88Q393.28 197.88 392.32 197.14Q391.36 196.39 391.19 195.12L391.12 195.12L391.17 198.12L391.17 201.96M394.05 196.01Q395.42 196.01 396.18 195.29Q396.95 194.57 396.95 192.96L396.95 189.12Q396.95 187.49 396.18 186.78Q395.42 186.07 394.05 186.07Q392.73 186.07 391.95 186.91Q391.17 187.75 391.17 189.24L391.17 192.84Q391.17 194.33 391.95 195.17Q392.73 196.01 394.05 196.01" fill="white" fill-opacity="0.7"/>
<path d="M406.05 197.64L403.89 197.64L403.89 184.44L406.05 184.44L406.05 186.96L406.10 186.96Q406.26 185.69 407.18 184.94Q408.09 184.20 409.62 184.20Q411.69 184.20 412.80 185.44Q413.92 186.67 413.92 188.95L413.92 190.08L411.76 190.08L411.76 188.95Q411.76 186.07 408.95 186.07Q407.54 186.07 406.79 186.89Q406.05 187.70 406.05 189.24" fill="white" fill-opacity="0.7"/>
<path d="M422.80 197.83Q420.42 197.83 419.02 196.44Q417.62 195.05 417.62 192.55L417.62 189.53Q417.62 187.01 419.01 185.63Q420.40 184.25 422.80 184.25Q425.20 184.25 426.59 185.63Q427.98 187.01 427.98 189.53L427.98 192.55Q427.98 195.05 426.58 196.44Q425.18 197.83 422.80 197.83M422.80 195.91Q424.22 195.91 425.02 195.12Q425.82 194.33 425.82 192.79L425.82 189.29Q425.82 187.75 425.02 186.96Q424.22 186.17 422.80 186.17Q421.41 186.17 420.59 186.96Q419.78 187.75 419.78 189.29L419.78 192.79Q419.78 194.33 420.59 195.12Q421.41 195.91 422.80 195.91" fill="white" fill-opacity="0.7"/>
<path d="M438.62 197.64L435.78 197.64L431.30 184.44L433.62 184.44L436.50 193.32Q436.77 194.11 436.96 194.84Q437.15 195.58 437.25 195.98Q437.37 195.58 437.54 194.84Q437.70 194.11 437.94 193.32L440.82 184.44L443.10 184.44" fill="white" fill-opacity="0.7"/>
<path d="M457.72 197.64L446.44 197.64L446.44 195.67L451.12 195.67L451.12 186.41L446.92 186.41L446.92 184.44L453.28 184.44L453.28 195.67L457.72 195.67L457.72 197.64M451.96 182.06Q451.17 182.06 450.71 181.66Q450.26 181.25 450.26 180.55Q450.26 179.83 450.71 179.41Q451.17 178.99 451.96 178.99Q452.75 178.99 453.21 179.41Q453.66 179.83 453.66 180.55Q453.66 181.25 453.21 181.66Q452.75 182.06 451.96 182.06" fill="white" fill-opacity="0.7"/>
<path d="M465.23 197.88Q463.26 197.88 462.08 196.56Q460.89 195.24 460.89 192.98L460.89 189.12Q460.89 186.84 462.06 185.52Q463.24 184.20 465.23 184.20Q466.72 184.20 467.69 184.94Q468.66 185.69 468.86 186.96L468.88 186.96L468.83 183.96L468.83 180.12L470.99 180.12L470.99 197.64L468.83 197.64L468.83 195.12L468.81 195.12Q468.64 196.42 467.68 197.15Q466.72 197.88 465.23 197.88M465.95 196.01Q467.30 196.01 468.06 195.17Q468.83 194.33 468.83 192.84L468.83 189.24Q468.83 187.75 468.06 186.91Q467.30 186.07 465.95 186.07Q464.58 186.07 463.82 186.78Q463.05 187.49 463.05 189.12L463.05 192.96Q463.05 194.57 463.82 195.29Q464.58 196.01 465.95 196.01" fill="white" fill-opacity="0.7"/>
<path d="M480.40 197.88Q478.07 197.88 476.64 196.48Q475.22 195.07 475.22 192.60L475.22 189.48Q475.22 187.01 476.64 185.60Q478.07 184.20 480.40 184.20Q481.96 184.20 483.12 184.82Q484.29 185.45 484.94 186.58Q485.58 187.70 485.58 189.24L485.58 191.59L477.33 191.59L477.33 192.84Q477.33 194.30 478.17 195.16Q479.01 196.01 480.40 196.01Q481.60 196.01 482.38 195.54Q483.16 195.07 483.33 194.28L485.49 194.28Q485.27 195.94 483.88 196.91Q482.49 197.88 480.40 197.88M477.33 189.24L477.33 189.91L483.47 189.91L483.47 189.24Q483.47 187.68 482.67 186.83Q481.86 185.98 480.40 185.98Q478.94 185.98 478.13 186.83Q477.33 187.68 477.33 189.24" fill="white" fill-opacity="0.7"/>
<path d="M492.45 197.64L490.29 197.64L490.29 184.44L492.45 184.44L492.45 186.96L492.50 186.96Q492.66 185.69 493.58 184.94Q494.49 184.20 496.02 184.20Q498.09 184.20 499.20 185.44Q500.32 186.67 500.32 188.95L500.32 190.08L498.16 190.08L498.16 188.95Q498.16 186.07 495.35 186.07Q493.94 186.07 493.19 186.89Q492.45 187.70 492.45 189.24" fill="white" fill-opacity="0.7"/>
<path d="M523.70 197.88Q521.15 197.88 519.64 196.54Q518.13 195.19 518.13 192.84L520.29 192.84Q520.29 194.30 521.22 195.13Q522.16 195.96 523.70 195.96Q525.18 195.96 526.07 195.10Q526.96 194.23 526.96 192.84Q526.96 191.78 526.40 191Q525.83 190.22 524.78 189.94L522.11 189.19Q520.46 188.71 519.51 187.48Q518.56 186.24 518.56 184.56Q518.56 183.17 519.18 182.11Q519.81 181.06 520.94 180.47Q522.06 179.88 523.53 179.88Q525.02 179.88 526.16 180.47Q527.30 181.06 527.94 182.10Q528.59 183.14 528.59 184.51L526.43 184.51Q526.43 183.31 525.62 182.56Q524.80 181.80 523.53 181.80Q522.26 181.80 521.46 182.56Q520.67 183.31 520.67 184.51Q520.67 185.47 521.19 186.16Q521.70 186.84 522.64 187.10L525.38 187.87Q527.13 188.35 528.10 189.68Q529.07 191.02 529.07 192.84Q529.07 195.14 527.61 196.51Q526.14 197.88 523.70 197.88" fill="white" fill-opacity="0.7"/>
<path d="M538 197.83Q535.62 197.83 534.22 196.44Q532.82 195.05 532.82 192.55L532.82 189.53Q532.82 187.01 534.21 185.63Q535.60 184.25 538 184.25Q540.40 184.25 541.79 185.63Q543.18 187.01 543.18 189.53L543.18 192.55Q543.18 195.05 541.78 196.44Q540.38 197.83 538 197.83M538 195.91Q539.42 195.91 540.22 195.12Q541.02 194.33 541.02 192.79L541.02 189.29Q541.02 187.75 540.22 186.96Q539.42 186.17 538 186.17Q536.61 186.17 535.79 186.96Q534.98 187.75 534.98 189.29L534.98 192.79Q534.98 194.33 535.79 195.12Q536.61 195.91 538 195.91" fill="white" fill-opacity="0.7"/>
<path d="M558.40 197.64L554.32 197.64Q552.57 197.64 551.52 196.62Q550.48 195.60 550.48 193.92L550.48 182.09L545.92 182.09L545.92 180.12L552.64 180.12L552.64 193.92Q552.64 194.74 553.10 195.20Q553.55 195.67 554.32 195.67L558.40 195.67" fill="white" fill-opacity="0.7"/>
<path d="M565.65 197.88Q563.61 197.88 562.41 196.74Q561.21 195.60 561.21 193.75Q561.21 192.53 561.76 191.62Q562.31 190.70 563.30 190.19Q564.28 189.67 565.55 189.67L569.63 189.67L569.63 188.64Q569.63 186.07 566.82 186.07Q565.58 186.07 564.81 186.53Q564.04 186.98 563.99 187.80L561.83 187.80Q561.95 186.24 563.28 185.22Q564.62 184.20 566.82 184.20Q569.22 184.20 570.51 185.35Q571.79 186.50 571.79 188.57L571.79 197.64L569.66 197.64L569.66 195.24L569.61 195.24Q569.42 196.46 568.38 197.17Q567.35 197.88 565.65 197.88M566.18 196.06Q567.76 196.06 568.70 195.29Q569.63 194.52 569.63 193.20L569.63 191.35L565.79 191.35Q564.74 191.35 564.08 191.99Q563.42 192.62 563.42 193.68Q563.42 194.78 564.15 195.42Q564.88 196.06 566.18 196.06" fill="white" fill-opacity="0.7"/>
<path d="M578.37 197.64L576.21 197.64L576.21 184.44L578.37 184.44L578.37 186.96L578.39 186.96Q578.56 185.64 579.47 184.92Q580.38 184.20 581.90 184.20Q583.89 184.20 585.06 185.42Q586.24 186.65 586.24 188.76L586.24 197.64L584.08 197.64L584.08 189.14Q584.08 187.63 583.32 186.83Q582.57 186.02 581.27 186.02Q579.93 186.02 579.15 186.86Q578.37 187.70 578.37 189.24" fill="white" fill-opacity="0.7"/>
<path d="M594.45 197.88Q592.41 197.88 591.21 196.74Q590.01 195.60 590.01 193.75Q590.01 192.53 590.56 191.62Q591.11 190.70 592.10 190.19Q593.08 189.67 594.35 189.67L598.43 189.67L598.43 188.64Q598.43 186.07 595.62 186.07Q594.38 186.07 593.61 186.53Q592.84 186.98 592.79 187.80L590.63 187.80Q590.75 186.24 592.08 185.22Q593.42 184.20 595.62 184.20Q598.02 184.20 599.31 185.35Q600.59 186.50 600.59 188.57L600.59 197.64L598.46 197.64L598.46 195.24L598.41 195.24Q598.22 196.46 597.18 197.17Q596.15 197.88 594.45 197.88M594.98 196.06Q596.56 196.06 597.50 195.29Q598.43 194.52 598.43 193.20L598.43 191.35L594.59 191.35Q593.54 191.35 592.88 191.99Q592.22 192.62 592.22 193.68Q592.22 194.78 592.95 195.42Q593.68 196.06 594.98 196.06" fill="white" fill-opacity="0.7"/>
<path d="M624.93 197.83L623.87 197.83Q621.66 197.83 620.45 196.84Q619.24 195.84 619.24 194.02L621.40 194.02Q621.40 194.93 622.05 195.44Q622.70 195.96 623.87 195.96L624.93 195.96Q626.13 195.96 626.79 195.43Q627.45 194.90 627.45 193.94Q627.45 192.24 625.89 192.02L622.24 191.50Q620.90 191.30 620.15 190.38Q619.41 189.46 619.41 187.94Q619.41 186.22 620.60 185.23Q621.78 184.25 623.87 184.25L624.93 184.25Q626.85 184.25 628.06 185.20Q629.27 186.14 629.37 187.68L627.18 187.68Q627.14 186.98 626.52 186.53Q625.91 186.07 624.93 186.07L623.87 186.07Q622.77 186.07 622.14 186.58Q621.52 187.08 621.52 187.94Q621.52 189.34 622.79 189.53L626.20 190.01Q629.56 190.49 629.56 193.94Q629.56 195.79 628.35 196.81Q627.14 197.83 624.93 197.83" fill="white" fill-opacity="0.7"/>
<path d="M636.88 197.64L634.50 197.64L632.34 184.44L634.22 184.44L635.56 193.75Q635.63 194.28 635.70 194.92Q635.78 195.55 635.80 195.96Q635.85 195.55 635.91 194.92Q635.97 194.28 636.06 193.75L637.72 184.44L639.88 184.44L641.54 193.75Q641.63 194.28 641.72 194.92Q641.80 195.55 641.82 195.96Q641.87 195.55 641.94 194.92Q642.02 194.28 642.09 193.75L643.48 184.44L645.26 184.44L643 197.64L640.62 197.64L639.11 188.52Q639.02 187.85 638.93 187.09Q638.85 186.34 638.80 185.93Q638.78 186.34 638.68 187.09Q638.58 187.85 638.46 188.52" fill="white" fill-opacity="0.7"/>
<path d="M652.05 197.88Q650.01 197.88 648.81 196.74Q647.61 195.60 647.61 193.75Q647.61 192.53 648.16 191.62Q648.71 190.70 649.70 190.19Q650.68 189.67 651.95 189.67L656.03 189.67L656.03 188.64Q656.03 186.07 653.22 186.07Q651.98 186.07 651.21 186.53Q650.44 186.98 650.39 187.80L648.23 187.80Q648.35 186.24 649.68 185.22Q651.02 184.20 653.22 184.20Q655.62 184.20 656.91 185.35Q658.19 186.50 658.19 188.57L658.19 197.64L656.06 197.64L656.06 195.24L656.01 195.24Q655.82 196.46 654.78 197.17Q653.75 197.88 652.05 197.88M652.58 196.06Q654.16 196.06 655.10 195.29Q656.03 194.52 656.03 193.20L656.03 191.35L652.19 191.35Q651.14 191.35 650.48 191.99Q649.82 192.62 649.82 193.68Q649.82 194.78 650.55 195.42Q651.28 196.06 652.58 196.06" fill="white" fill-opacity="0.7"/>
<path d="M664.77 201.96L662.61 201.96L662.61 184.44L664.77 184.44L664.77 186.96L664.79 186.96Q664.96 185.66 665.92 184.93Q666.88 184.20 668.37 184.20Q670.36 184.20 671.54 185.51Q672.71 186.82 672.71 189.10L672.71 192.96Q672.71 195.24 671.54 196.56Q670.36 197.88 668.37 197.88Q666.88 197.88 665.92 197.14Q664.96 196.39 664.79 195.12L664.72 195.12L664.77 198.12L664.77 201.96M667.65 196.01Q669.02 196.01 669.78 195.29Q670.55 194.57 670.55 192.96L670.55 189.12Q670.55 187.49 669.78 186.78Q669.02 186.07 667.65 186.07Q666.33 186.07 665.55 186.91Q664.77 187.75 664.77 189.24L664.77 192.84Q664.77 194.33 665.55 195.17Q666.33 196.01 667.65 196.01" fill="white" fill-opacity="0.7"/>
<path d="M682.53 197.83L681.47 197.83Q679.26 197.83 678.05 196.84Q676.84 195.84 676.84 194.02L679 194.02Q679 194.93 679.65 195.44Q680.30 195.96 681.47 195.96L682.53 195.96Q683.73 195.96 684.39 195.43Q685.05 194.90 685.05 193.94Q685.05 192.24 683.49 192.02L679.84 191.50Q678.50 191.30 677.75 190.38Q677.01 189.46 677.01 187.94Q677.01 186.22 678.20 185.23Q679.38 184.25 681.47 184.25L682.53 184.25Q684.45 184.25 685.66 185.20Q686.87 186.14 686.97 187.68L684.78 187.68Q684.74 186.98 684.12 186.53Q683.51 186.07 682.53 186.07L681.47 186.07Q680.37 186.07 679.74 186.58Q679.12 187.08 679.12 187.94Q679.12 189.34 680.39 189.53L683.80 190.01Q687.16 190.49 687.16 193.94Q687.16 195.79 685.95 196.81Q684.74 197.83 682.53 197.83" fill="white" fill-opacity="0.7"/>
<path d="M710.92 197.64L708.76 197.64L708.76 188.21L704.92 188.21L704.92 186.24L708.76 186.24L708.76 183.48Q708.76 181.92 709.74 181.02Q710.73 180.12 712.46 180.12L716.32 180.12L716.32 182.09L712.46 182.09Q710.92 182.09 710.92 183.48L710.92 186.24L716.32 186.24L716.32 188.21L710.92 188.21" fill="white" fill-opacity="0.7"/>
<path d="M724.05 197.88Q722.01 197.88 720.81 196.74Q719.61 195.60 719.61 193.75Q719.61 192.53 720.16 191.62Q720.71 190.70 721.70 190.19Q722.68 189.67 723.95 189.67L728.03 189.67L728.03 188.64Q728.03 186.07 725.22 186.07Q723.98 186.07 723.21 186.53Q722.44 186.98 722.39 187.80L720.23 187.80Q720.35 186.24 721.68 185.22Q723.02 184.20 725.22 184.20Q727.62 184.20 728.91 185.35Q730.19 186.50 730.19 188.57L730.19 197.64L728.06 197.64L728.06 195.24L728.01 195.24Q727.82 196.46 726.78 197.17Q725.75 197.88 724.05 197.88M724.58 196.06Q726.16 196.06 727.10 195.29Q728.03 194.52 728.03 193.20L728.03 191.35L724.19 191.35Q723.14 191.35 722.48 191.99Q721.82 192.62 721.82 193.68Q721.82 194.78 722.55 195.42Q723.28 196.06 724.58 196.06" fill="white" fill-opacity="0.7"/>
<path d="M737.25 197.64L735.09 197.64L735.09 184.44L737.25 184.44L737.25 186.96L737.30 186.96Q737.46 185.69 738.38 184.94Q739.29 184.20 740.82 184.20Q742.89 184.20 744 185.44Q745.12 186.67 745.12 188.95L745.12 190.08L742.96 190.08L742.96 188.95Q742.96 186.07 740.15 186.07Q738.74 186.07 737.99 186.89Q737.25 187.70 737.25 189.24" fill="white" fill-opacity="0.7"/>
<path d="M750.26 197.64L748.24 197.64L748.24 184.44L750.11 184.44L750.11 186.19L750.16 186.19Q750.28 185.30 750.87 184.75Q751.46 184.20 752.37 184.20Q753.23 184.20 753.83 184.70Q754.43 185.21 754.70 186.07L754.72 186.07Q754.89 185.21 755.48 184.70Q756.06 184.20 756.98 184.20Q758.25 184.20 759 185.15Q759.76 186.10 759.76 187.61L759.76 197.64L757.74 197.64L757.74 187.58Q757.74 186.79 757.36 186.32Q756.98 185.86 756.30 185.86Q755.66 185.86 755.27 186.31Q754.89 186.77 754.89 187.56L754.89 197.64L753.11 197.64L753.11 187.58Q753.11 186.79 752.73 186.32Q752.34 185.86 751.70 185.86Q751.02 185.86 750.64 186.31Q750.26 186.77 750.26 187.56" fill="white" fill-opacity="0.7"/>
<path d="M768.93 197.83L767.87 197.83Q765.66 197.83 764.45 196.84Q763.24 195.84 763.24 194.02L765.40 194.02Q765.40 194.93 766.05 195.44Q766.70 195.96 767.87 195.96L768.93 195.96Q770.13 195.96 770.79 195.43Q771.45 194.90 771.45 193.94Q771.45 192.24 769.89 192.02L766.24 191.50Q764.90 191.30 764.15 190.38Q763.41 189.46 763.41 187.94Q763.41 186.22 764.60 185.23Q765.78 184.25 767.87 184.25L768.93 184.25Q770.85 184.25 772.06 185.20Q773.27 186.14 773.37 187.68L771.18 187.68Q771.14 186.98 770.52 186.53Q769.91 186.07 768.93 186.07L767.87 186.07Q766.77 186.07 766.14 186.58Q765.52 187.08 765.52 187.94Q765.52 189.34 766.79 189.53L770.20 190.01Q773.56 190.49 773.56 193.94Q773.56 195.79 772.35 196.81Q771.14 197.83 768.93 197.83" fill="white" fill-opacity="0.7"/>
<path d="M802.36 197.64L798.52 197.64Q796.89 197.64 795.90 196.69Q794.92 195.74 794.92 194.16L794.92 186.41L791.13 186.41L791.13 184.44L794.92 184.44L794.92 180.72L797.08 180.72L797.08 184.44L802.48 184.44L802.48 186.41L797.08 186.41L797.08 194.16Q797.08 194.83 797.48 195.25Q797.87 195.67 798.52 195.67L802.36 195.67" fill="white" fill-opacity="0.7"/>
<path d="M811.60 197.83Q809.22 197.83 807.82 196.44Q806.42 195.05 806.42 192.55L806.42 189.53Q806.42 187.01 807.81 185.63Q809.20 184.25 811.60 184.25Q814 184.25 815.39 185.63Q816.78 187.01 816.78 189.53L816.78 192.55Q816.78 195.05 815.38 196.44Q813.98 197.83 811.60 197.83M811.60 195.91Q813.02 195.91 813.82 195.12Q814.62 194.33 814.62 192.79L814.62 189.29Q814.62 187.75 813.82 186.96Q813.02 186.17 811.60 186.17Q810.21 186.17 809.39 186.96Q808.58 187.75 808.58 189.29L808.58 192.79Q808.58 194.33 809.39 195.12Q810.21 195.91 811.60 195.91" fill="white" fill-opacity="0.7"/>
<path d="M823.29 197.64L821.13 197.64L821.13 180.12L823.29 180.12L823.29 189.89L825.81 189.89L829.50 184.44L831.98 184.44L827.73 190.73L832.22 197.64L829.70 197.64L825.86 191.76L823.29 191.76" fill="white" fill-opacity="0.7"/>
<path d="M840.40 197.88Q838.07 197.88 836.64 196.48Q835.22 195.07 835.22 192.60L835.22 189.48Q835.22 187.01 836.64 185.60Q838.07 184.20 840.40 184.20Q841.96 184.20 843.12 184.82Q844.29 185.45 844.94 186.58Q845.58 187.70 845.58 189.24L845.58 191.59L837.33 191.59L837.33 192.84Q837.33 194.30 838.17 195.16Q839.01 196.01 840.40 196.01Q841.60 196.01 842.38 195.54Q843.16 195.07 843.33 194.28L845.49 194.28Q845.27 195.94 843.88 196.91Q842.49 197.88 840.40 197.88M837.33 189.24L837.33 189.91L843.47 189.91L843.47 189.24Q843.47 187.68 842.67 186.83Q841.86 185.98 840.40 185.98Q838.94 185.98 838.13 186.83Q837.33 187.68 837.33 189.24" fill="white" fill-opacity="0.7"/>
<path d="M851.97 197.64L849.81 197.64L849.81 184.44L851.97 184.44L851.97 186.96L851.99 186.96Q852.16 185.64 853.07 184.92Q853.98 184.20 855.50 184.20Q857.49 184.20 858.66 185.42Q859.84 186.65 859.84 188.76L859.84 197.64L857.68 197.64L857.68 189.14Q857.68 187.63 856.92 186.83Q856.17 186.02 854.87 186.02Q853.53 186.02 852.75 186.86Q851.97 187.70 851.97 189.24" fill="white" fill-opacity="0.7"/>
<path d="M889.60 197.64L885.52 197.64Q883.77 197.64 882.72 196.62Q881.68 195.60 881.68 193.92L881.68 182.09L877.12 182.09L877.12 180.12L883.84 180.12L883.84 193.92Q883.84 194.74 884.30 195.20Q884.75 195.67 885.52 195.67L889.60 195.67" fill="white" fill-opacity="0.7"/>
<path d="M896.85 197.88Q894.81 197.88 893.61 196.74Q892.41 195.60 892.41 193.75Q892.41 192.53 892.96 191.62Q893.51 190.70 894.50 190.19Q895.48 189.67 896.75 189.67L900.83 189.67L900.83 188.64Q900.83 186.07 898.02 186.07Q896.78 186.07 896.01 186.53Q895.24 186.98 895.19 187.80L893.03 187.80Q893.15 186.24 894.48 185.22Q895.82 184.20 898.02 184.20Q900.42 184.20 901.71 185.35Q902.99 186.50 902.99 188.57L902.99 197.64L900.86 197.64L900.86 195.24L900.81 195.24Q900.62 196.46 899.58 197.17Q898.55 197.88 896.85 197.88M897.38 196.06Q898.96 196.06 899.90 195.29Q900.83 194.52 900.83 193.20L900.83 191.35L896.99 191.35Q895.94 191.35 895.28 191.99Q894.62 192.62 894.62 193.68Q894.62 194.78 895.35 195.42Q896.08 196.06 897.38 196.06" fill="white" fill-opacity="0.7"/>
<path d="M912.38 197.88Q910.10 197.88 908.73 196.52Q907.36 195.17 907.36 192.84L907.36 184.44L909.52 184.44L909.52 192.84Q909.52 194.28 910.29 195.13Q911.06 195.98 912.38 195.98Q913.72 195.98 914.50 195.13Q915.28 194.28 915.28 192.84L915.28 184.44L917.44 184.44L917.44 192.84Q917.44 195.17 916.05 196.52Q914.66 197.88 912.38 197.88" fill="white" fill-opacity="0.7"/>
<path d="M923.97 197.64L921.81 197.64L921.81 184.44L923.97 184.44L923.97 186.96L923.99 186.96Q924.16 185.64 925.07 184.92Q925.98 184.20 927.50 184.20Q929.49 184.20 930.66 185.42Q931.84 186.65 931.84 188.76L931.84 197.64L929.68 197.64L929.68 189.14Q929.68 187.63 928.92 186.83Q928.17 186.02 926.87 186.02Q925.53 186.02 924.75 186.86Q923.97 187.70 923.97 189.24" fill="white" fill-opacity="0.7"/>
<path d="M941.39 197.88Q938.99 197.88 937.55 196.54Q936.11 195.19 936.11 192.84L936.11 189.24Q936.11 186.89 937.55 185.54Q938.99 184.20 941.39 184.20Q943.67 184.20 945.08 185.42Q946.48 186.65 946.55 188.76L944.39 188.76Q944.32 187.49 943.53 186.80Q942.74 186.12 941.39 186.12Q939.98 186.12 939.12 186.92Q938.27 187.73 938.27 189.22L938.27 192.84Q938.27 194.33 939.12 195.14Q939.98 195.96 941.39 195.96Q942.74 195.96 943.53 195.26Q944.32 194.57 944.39 193.32L946.55 193.32Q946.48 195.43 945.08 196.66Q943.67 197.88 941.39 197.88" fill="white" fill-opacity="0.7"/>
<path d="M952.77 197.64L950.61 197.64L950.61 180.12L952.77 180.12L952.77 186.96L952.79 186.96Q952.96 185.64 953.87 184.92Q954.78 184.20 956.30 184.20Q958.29 184.20 959.46 185.42Q960.64 186.65 960.64 188.76L960.64 197.64L958.48 197.64L958.48 189.12Q958.48 187.63 957.72 186.83Q956.97 186.02 955.67 186.02Q954.33 186.02 953.55 186.86Q952.77 187.70 952.77 189.24" fill="white" fill-opacity="0.7"/>
<path d="M970 197.88Q967.67 197.88 966.24 196.48Q964.82 195.07 964.82 192.60L964.82 189.48Q964.82 187.01 966.24 185.60Q967.67 184.20 970 184.20Q971.56 184.20 972.72 184.82Q973.89 185.45 974.54 186.58Q975.18 187.70 975.18 189.24L975.18 191.59L966.93 191.59L966.93 192.84Q966.93 194.30 967.77 195.16Q968.61 196.01 970 196.01Q971.20 196.01 971.98 195.54Q972.76 195.07 972.93 194.28L975.09 194.28Q974.87 195.94 973.48 196.91Q972.09 197.88 970 197.88M966.93 189.24L966.93 189.91L973.07 189.91L973.07 189.24Q973.07 187.68 972.27 186.83Q971.46 185.98 970 185.98Q968.54 185.98 967.73 186.83Q966.93 187.68 966.93 189.24" fill="white" fill-opacity="0.7"/>
<path d="M984.93 197.83L983.87 197.83Q981.66 197.83 980.45 196.84Q979.24 195.84 979.24 194.02L981.40 194.02Q981.40 194.93 982.05 195.44Q982.70 195.96 983.87 195.96L984.93 195.96Q986.13 195.96 986.79 195.43Q987.45 194.90 987.45 193.94Q987.45 192.24 985.89 192.02L982.24 191.50Q980.90 191.30 980.15 190.38Q979.41 189.46 979.41 187.94Q979.41 186.22 980.60 185.23Q981.78 184.25 983.87 184.25L984.93 184.25Q986.85 184.25 988.06 185.20Q989.27 186.14 989.37 187.68L987.18 187.68Q987.14 186.98 986.52 186.53Q985.91 186.07 984.93 186.07L983.87 186.07Q982.77 186.07 982.14 186.58Q981.52 187.08 981.52 187.94Q981.52 189.34 982.79 189.53L986.20 190.01Q989.56 190.49 989.56 193.94Q989.56 195.79 988.35 196.81Q987.14 197.83 984.93 197.83" fill="white" fill-opacity="0.7"/>
<path d="M79.95 136.06L70.54 136.06L70.54 65.98L92.24 65.98Q98.67 65.98 103.47 68.52Q108.27 71.07 110.96 75.63Q113.65 80.19 113.65 86.33Q113.65 93.44 110.05 98.52Q106.45 103.61 100.50 105.72L114.61 136.06L104.14 136.06L90.80 106.78L79.95 106.78L79.95 136.06M79.95 74.43L79.95 98.33L92.24 98.33Q97.62 98.33 100.74 95.07Q103.86 91.80 103.86 86.43Q103.86 80.96 100.69 77.69Q97.52 74.43 92.24 74.43L79.95 74.43M133.71 136.06L124.02 136.06L142.16 65.98L154.74 65.98L172.78 136.06L163.09 136.06L158.67 117.82L138.13 117.82L133.71 136.06M145.14 88.92L140.05 109.95L156.75 109.95L151.76 89.02Q150.32 83.26 149.46 79.23Q148.59 75.20 148.40 73.76Q148.21 75.20 147.34 79.23Q146.48 83.26 145.14 88.92M210.80 136.06L201.30 136.06L201.30 110.04L180.27 65.98L190.35 65.98L203.31 93.63Q204.46 96.12 205.18 98.14Q205.90 100.16 206.10 101.02Q206.38 100.16 207.10 98.14Q207.82 96.12 209.07 93.63L221.94 65.98L231.73 65.98L210.80 110.04L210.80 136.06M262.06 136.06L243.25 136.06L243.25 65.98L262.06 65.98Q268.88 65.98 273.92 68.62Q278.96 71.26 281.74 76.01Q284.53 80.76 284.53 87.20L284.53 114.75Q284.53 121.18 281.74 125.98Q278.96 130.78 273.92 133.42Q268.88 136.06 262.06 136.06M252.75 74.43L252.75 127.61L262.06 127.61Q268.11 127.61 271.57 124.16Q275.02 120.70 275.02 114.75L275.02 87.20Q275.02 81.24 271.57 77.84Q268.11 74.43 262.06 74.43L252.75 74.43M340.30 136.06L302.10 136.06L302.10 127.42L316.40 127.42L316.40 74.62L302.10 74.62L302.10 65.98L340.30 65.98L340.30 74.62L326 74.62L326 127.42L340.30 127.42L340.30 136.06M378.80 137.02Q368.91 137.02 363.58 131.55Q358.26 126.08 358.26 116.67L358.26 65.98L367.76 65.98L367.76 116.67Q367.76 122.24 370.50 125.40Q373.23 128.57 378.80 128.57Q384.27 128.57 387.10 125.40Q389.94 122.24 389.94 116.67L389.94 65.98L399.44 65.98L399.44 116.67Q399.44 126.17 394.11 131.60Q388.78 137.02 378.80 137.02M423.15 136.06L414.13 136.06L414.13 65.98L427.57 65.98L436.21 96.22L445.23 65.98L458.77 65.98L458.77 136.06L449.65 136.06L449.65 103.90Q449.65 98.81 449.84 92.62Q450.03 86.43 450.37 80.24Q450.70 74.04 451.09 69.05L440.14 104.96L432.08 104.96L421.52 69.92Q422.38 76.92 422.77 85.52Q423.15 94.11 423.15 103.90" fill="url(#paint2_linear_0_1)"/>
<g id="Group 1">
<rect id="Rectangle 1" x="26" y="168" width="12" height="184" rx="5" fill="url(#paint3_linear_0_1)" fill-opacity="0.9"/>
</g>
<g id="Group 1_2">
<rect id="Rectangle 2" x="26" y="38" width="12" height="119" rx="5" fill="url(#paint4_linear_0_1)" fill-opacity="0.9"/>
</g>
<ellipse id="Ellipse 1" cx="148.5" cy="573" rx="215.5" ry="214" fill="url(#paint5_linear_0_1)" fill-opacity="0.4"/>
<rect id="Rectangle 3" x="1229" y="48" width="300" height="300" rx="25" fill="#FFFBFB" fill-opacity="0.9"/>
<g id="placeholder-logo"><g transform="translate(1229,48) translate(19.9,0.0) scale(8.1301)"><style type="text/css">
	.st0{fill:url(#SVGID_1_);}
	.st1{fill:url(#SVGID_2_);}
	.st2{fill:url(#SVGID_3_);}
	.st3{fill:url(#SVGID_4_);}
</style>
<linearGradient id="SVGID_1_" gradientUnits="userSpaceOnUse" x1="32.95" y1="26.3048" x2="-0.9788" y2="12.7367" gradientTransform="matrix(1 0 0 -1 0 38)">
	<stop  offset="0" style="stop-color:#C200FB"/>
	<stop  offset="0.4897" style="stop-color:#3772FF"/>
	<stop  offset="1" style="stop-color:#5AC4BE"/>
</linearGradient>
<path class="st0" d="M30.3,13.9v12.9L16,35L1.7,26.7V10.2L16,1.9l11,6.4l1.7-1L16,0L0,9.2v18.5l16,9.2l16-9.2V12.9L30.3,13.9z"/>
<linearGradient id="SVGID_2_" gradientUnits="userSpaceOnUse" x1="32.2949" y1="27.9428" x2="-1.6339" y2="14.3747" gradientTransform="matrix(1 0 0 -1 0 38)">
	<stop  offset="0" style="stop-color:#C200FB"/>
	<stop  offset="0.4897" style="stop-color:#3772FF"/>
	<stop  offset="1" style="stop-color:#5AC4BE"/>
</linearGradient>
<path class="st1" d="M12,26.8H9.6v-8h8c0.8,0,1.5-0.3,2-0.9c0.5-0.5,0.8-1.3,0.8-2c0-0.4-0.1-0.7-0.2-1.1c-0.1-0.3-0.4-0.7-0.6-0.9
	c-0.3-0.3-0.6-0.5-0.9-0.6S18,13,17.6,13h-8v-2.4h8c1.4,0,2.7,0.6,3.7,1.6c1,1,1.6,2.3,1.6,3.7c0,1.1-0.3,2.1-0.9,3
	c-0.6,0.8-1.4,1.5-2.3,1.9c-0.9,0.3-1.9,0.4-2.9,0.4H12V26.8z"/>
<linearGradient id="SVGID_3_" gradientUnits="userSpaceOnUse" x1="35.6876" y1="19.4591" x2="1.7588" y2="5.891" gradientTransform="matrix(1 0 0 -1 0 38)">
	<stop  offset="0" style="stop-color:#C200FB"/>
	<stop  offset="0.4897" style="stop-color:#3772FF"/>
	<stop  offset="1" style="stop-color:#5AC4BE"/>
</linearGradient>
<path class="st2" d="M22.8,26.6H20l-2.2-3.8c0.9-0.1,1.7-0.2,2.5-0.5L22.8,26.6z"/>
<linearGradient id="SVGID_4_" gradientUnits="userSpaceOnUse" x1="32.0678" y1="28.5037" x2="-1.861" y2="14.9356" gradientTransform="matrix(1 0 0 -1 0 38)">
	<stop  offset="0" style="stop-color:#C200FB"/>
	<stop  offset="0.4897" style="stop-color:#3772FF"/>
	<stop  offset="1" style="stop-color:#5AC4BE"/>
</linearGradient>
<path class="st3" d="M28.7,11.2l1.7,0.9l1.7-0.9V9.2l-1.7-1l-1.7,1V11.2z"/></g></g>
</g>
<defs>
<linearGradient id="paint0_linear_0_1" x1="0" y1="198" x2="1584" y2="198" gradientUnits="userSpaceOnUse">
<stop stop-color="#3D052C"/>
<stop offset="1"/>
</linearGradient>
<linearGradient id="paint1_linear_0_1" x1="323" y1="-224" x2="323" y2="352" gradientUnits="userSpaceOnUse">
<stop stop-color="#28F6F2" stop-opacity="0.4"/>
<stop offset="1" stop-color="#17908E" stop-opacity="0.7"/>
</linearGradient>
<linearGradient id="paint2_linear_0_1" x1="148.5" y1="38" x2="148.5" y2="140" gradientUnits="userSpaceOnUse">
<stop stop-color="white"/>
<stop offset="1" stop-color="#999999"/>
</linearGradient>
<linearGradient id="paint3_linear_0_1" x1="38" y1="260" x2="26" y2="260" gradientUnits="userSpaceOnUse">
<stop stop-color="#D9D9D9"/>
<stop offset="1" stop-color="#737373"/>
</linearGradient>
<linearGradient id="paint4_linear_0_1" x1="38" y1="97.5" x2="26" y2="97.5" gradientUnits="userSpaceOnUse">
<stop stop-color="#D9D9D9"/>
<stop offset="1" stop-color="#737373"/>
</linearGradient>
<linearGradient id="paint5_linear_0_1" x1="27.5" y1="434.5" x2="148.5" y2="787" gradientUnits="userSpaceOnUse">
<stop stop-color="#2E21BC"/>
<stop offset="1" stop-color="#150F56"/>
</linearGradient>
<clipPath id="clip0_0_1">
<rect width="1584" height="396" fill="white"/>
</clipPath>
</defs>
</svg>
